# xmcd CD database file
#
# Track frame offsets:
#	150
#	17745
#	36290
#	54308
#	67692
#	81492
#	102569
#	126957
#	138912
#	156515
#	173750
#	193593
#
# Disc length: 2828 seconds
#
# Revision: 0
# Processed by: cddbd v1.5.1PL0 Copyright (c) Steve Scherf et al.
# Submitted via: CDex 1.51
#
DISCID=a20b0a0c
DTITLE=Zdrowa Woda - Dziwne mysli
DYEAR=2000
DGENRE=Blues
TTITLE0=Dziwne mysli
TTITLE1=Twoj szept
TTITLE2=Takim jak my
TTITLE3=Znajdz mnie
TTITLE4=Hustawka
TTITLE5=Piate
TTITLE6=Wolnym
TTITLE7=Zabierz
TTITLE8=Do dna panowie
TTITLE9=Harnas
TTITLE10=Jacksonville
TTITLE11=Nie obuszczaj tego miasta
EXTD=YEAR: 2000
EXTT0=
EXTT1=
EXTT2=
EXTT3=
EXTT4=
EXTT5=
EXTT6=
EXTT7=
EXTT8=
EXTT9=
EXTT10=
EXTT11=
PLAYORDER=
